<?xml version="1.0" standalone="no"?>
<!DOCTYPE svg PUBLIC "-//W3C//DTD SVG 20010904//EN"
 "http://www.w3.org/TR/2001/REC-SVG-20010904/DTD/svg10.dtd">
<svg version="1.0" xmlns="http://www.w3.org/2000/svg"
 width="257.000000pt" height="251.000000pt" viewBox="0 0 257.000000 251.000000"
 preserveAspectRatio="xMidYMid meet">

<g transform="translate(0.000000,251.000000) scale(0.100000,-0.100000)"
fill="#000000" stroke="none">
<path d="M1228 2473 c34 -2 88 -2 120 0 31 2 3 3 -63 3 -66 0 -92 -1 -57 -3z"/>
<path d="M1106 2458 c17 -4 5 -5 -31 -3 -45 3 -54 2 -35 -5 21 -8 19 -9 -14
-5 -49 5 -103 -5 -85 -16 8 -4 10 -11 6 -15 -3 -4 -13 -1 -22 6 -9 7 -18 10
-22 6 -3 -3 -1 -6 5 -6 7 0 12 -5 12 -11 0 -7 -10 -9 -27 -5 -22 5 -25 4 -13
-4 12 -9 10 -11 -12 -7 -16 2 -25 0 -21 -6 3 -5 -3 -7 -14 -3 -23 7 -55 -2
-48 -14 7 -12 -32 -23 -47 -14 -7 5 -9 2 -5 -8 3 -10 -3 -19 -21 -27 -24 -10
-25 -10 -9 2 9 8 17 18 17 22 0 5 -8 2 -17 -6 -10 -8 -39 -25 -65 -38 -32 -17
-44 -29 -40 -39 3 -10 1 -13 -6 -8 -18 11 -82 -36 -177 -131 -94 -93 -112
-113 -138 -153 -20 -28 -22 -44 -5 -34 7 4 8 3 4 -5 -4 -6 -11 -9 -15 -6 -21
12 -85 -106 -75 -137 6 -20 5 -21 -8 -10 -13 10 -17 10 -22 -4 -9 -24 -7 -31
5 -14 9 12 10 12 5 -3 -3 -10 -6 -24 -6 -30 0 -7 -5 -6 -10 3 -8 11 -9 7 -4
-15 4 -23 3 -27 -5 -15 -9 12 -10 8 -5 -15 4 -23 3 -27 -5 -15 -9 12 -10 8 -5
-15 4 -24 3 -27 -6 -15 -9 12 -10 7 -4 -20 6 -30 5 -33 -9 -22 -12 11 -16 9
-21 -12 -3 -13 -4 -39 -1 -58 4 -27 3 -29 -5 -13 -7 15 -9 6 -5 -35 3 -40 2
-48 -5 -30 -6 17 -8 0 -5 -55 3 -58 2 -69 -4 -40 -10 52 -14 -195 -4 -275 6
-46 8 -51 15 -30 5 18 6 13 3 -16 -6 -55 4 -111 17 -92 7 9 8 4 4 -14 -6 -28
7 -39 18 -15 3 6 4 -1 1 -16 -8 -39 3 -75 17 -56 6 10 7 5 4 -16 -3 -16 -2
-37 4 -45 5 -8 10 -10 10 -5 0 13 20 -17 20 -30 0 -5 -5 -3 -11 5 -9 12 -10
12 -5 -3 3 -10 6 -23 6 -29 0 -6 7 -5 16 3 15 12 16 11 11 -6 -3 -11 1 -31 9
-45 14 -23 14 -15 -3 28 -12 32 6 6 22 -32 9 -21 11 -35 6 -31 -7 3 -8 0 -5
-9 3 -9 11 -13 17 -9 6 3 7 1 3 -5 -10 -16 64 -112 80 -105 8 3 14 0 14 -6 0
-6 -4 -11 -10 -11 -6 0 -2 -8 7 -18 10 -9 28 -31 41 -47 14 -19 20 -23 15 -10
-6 18 -5 18 10 7 9 -8 15 -17 14 -21 -7 -22 132 -139 151 -127 6 3 13 -1 16
-10 4 -10 2 -13 -7 -9 -6 4 -3 -1 8 -9 11 -9 25 -14 33 -11 7 2 10 1 7 -5 -3
-5 3 -14 14 -19 29 -16 38 -13 15 5 -18 15 -18 15 3 4 13 -6 20 -16 17 -24 -7
-19 139 -80 169 -70 20 6 20 5 8 -10 -13 -16 -12 -17 15 -11 22 5 26 4 14 -4
-11 -8 -7 -10 20 -5 27 4 32 3 20 -5 -12 -9 -8 -10 15 -5 24 4 27 3 15 -6 -12
-8 -6 -9 25 -5 27 3 33 2 20 -3 -17 -8 -14 -10 17 -16 20 -3 56 -4 80 -1 28 3
35 2 18 -3 -38 -12 -8 -23 31 -12 19 6 59 9 89 9 l55 -1 -54 -9 c-30 -5 -57
-12 -60 -14 -2 -3 53 -5 123 -5 70 0 125 4 122 8 -2 4 -22 9 -42 10 -21 2 -40
5 -43 7 -8 8 103 4 124 -4 11 -4 29 -5 40 -3 18 5 18 6 -5 14 -15 4 -4 6 30 3
41 -4 50 -2 35 5 -15 8 -9 9 25 5 36 -3 40 -2 20 5 -20 8 -16 9 20 5 34 -3 40
-2 25 6 -16 8 -14 8 12 5 45 -7 94 11 86 31 -5 13 -2 15 16 10 27 -7 153 44
196 79 20 17 24 22 10 18 -11 -4 -17 -3 -12 1 4 5 15 9 25 10 33 4 51 16 45
32 -4 10 0 14 13 11 11 -2 19 3 19 11 0 8 6 16 14 19 10 3 11 0 5 -9 -12 -20
64 42 114 93 81 82 95 98 88 105 -3 3 -6 1 -6 -5 0 -7 -5 -12 -10 -12 -7 0 -7
7 0 20 6 11 15 18 20 15 13 -8 39 35 33 54 -5 13 -3 14 7 4 11 -10 18 -5 36
27 26 46 43 95 24 70 -10 -13 -11 -13 -7 0 2 8 10 15 18 15 15 0 29 14 29 30
0 6 -5 3 -11 -5 -8 -11 -9 -9 -3 10 9 35 27 63 19 30 -5 -19 -4 -22 4 -10 6 8
8 23 5 34 -4 12 -2 16 5 11 8 -5 10 2 6 22 -5 22 -4 25 4 13 9 -12 10 -8 5 15
-7 28 -6 29 10 16 16 -13 17 -12 11 15 -5 23 -4 26 5 14 9 -12 10 -7 5 20 -5
27 -4 31 5 20 8 -11 9 -6 5 25 -4 31 -3 35 5 20 8 -15 9 -10 5 25 -3 29 -2 38
3 25 7 -16 10 -11 16 25 13 87 14 110 5 110 -5 0 -9 47 -9 105 0 58 4 105 8
105 4 0 7 15 6 33 -3 50 -6 54 -15 22 -5 -21 -7 -11 -4 35 3 48 2 59 -5 40 -8
-21 -9 -19 -5 14 5 46 -14 134 -25 116 -5 -8 -10 -9 -14 -2 -3 6 -2 13 4 17 5
3 10 14 10 23 0 13 -2 13 -16 -4 -15 -18 -15 -18 -9 9 6 30 -31 135 -69 192
-45 69 -48 72 -36 48 15 -32 12 -42 -4 -14 -8 14 -11 32 -8 40 4 10 1 13 -11
8 -11 -4 -20 1 -27 13 -16 29 -11 38 5 10 8 -14 14 -20 15 -13 0 16 -73 107
-141 175 -39 39 -63 56 -73 52 -12 -5 -15 -2 -10 9 4 11 -8 24 -38 44 -24 15
-47 33 -53 40 -18 21 -129 74 -143 68 -9 -3 -12 0 -9 9 4 9 -4 18 -21 24 -63
23 -68 24 -42 7 18 -12 19 -14 5 -9 -11 3 -31 9 -45 12 -23 5 -23 6 -5 14 14
5 9 6 -15 2 -27 -4 -32 -3 -20 6 11 8 8 9 -15 4 -28 -7 -29 -6 -15 11 14 16
12 17 -20 11 -27 -6 -31 -5 -20 4 11 8 6 9 -25 5 -27 -3 -34 -2 -20 3 17 8 12
11 -25 17 -56 10 -495 13 -454 3z m387 -5 c-7 -2 -21 -2 -30 0 -10 3 -4 5 12
5 17 0 24 -2 18 -5z m-26 -14 c43 -5 96 -16 118 -24 22 -7 71 -23 108 -35 37
-12 104 -39 148 -61 45 -22 84 -38 87 -35 3 3 -11 13 -31 21 -42 17 -51 30
-11 15 41 -16 68 -37 52 -42 -7 -3 12 -21 45 -43 31 -21 60 -36 63 -33 2 3
-11 15 -31 26 -19 12 -35 27 -35 34 0 8 4 6 13 -4 6 -8 29 -25 50 -37 37 -23
50 -38 22 -27 -8 3 -15 3 -15 1 0 -2 44 -48 98 -102 132 -132 224 -276 282
-439 44 -124 59 -199 66 -344 13 -257 -50 -487 -193 -710 -25 -38 -29 -55 -12
-44 8 4 8 0 0 -15 -14 -25 -22 -28 -15 -3 3 9 -15 -5 -40 -33 -50 -55 -62 -83
-19 -44 l27 24 -28 -35 c-16 -19 -47 -51 -70 -70 -22 -19 -35 -27 -27 -17 23
30 -6 19 -36 -14 -15 -17 -39 -36 -53 -44 -14 -7 -34 -22 -45 -32 -11 -10 -40
-29 -65 -42 -25 -13 -52 -30 -61 -37 -17 -15 -179 -78 -253 -99 -139 -39 -439
-45 -589 -11 -131 29 -274 92 -399 173 -28 18 -54 30 -60 27 -12 -8 -75 36
-119 84 l-34 37 40 -36 c55 -49 96 -79 108 -79 6 0 -9 17 -34 37 -24 21 -68
61 -98 90 -30 29 -57 50 -59 48 -3 -2 1 -11 8 -20 7 -8 10 -15 7 -15 -3 0 -16
15 -28 33 -16 21 -17 27 -6 18 23 -18 22 1 -3 30 -14 17 -22 21 -28 12 -5 -9
-12 -6 -21 10 -13 20 -13 21 2 8 25 -20 19 -2 -14 49 -16 25 -45 77 -65 115
-59 115 -62 119 -67 104 -2 -8 -3 -5 -1 6 3 17 -10 73 -42 190 -19 69 -25 149
-21 290 4 143 8 171 37 270 48 164 134 332 222 433 15 18 28 38 28 43 0 11
-50 -39 -76 -75 -8 -11 -14 -16 -14 -10 0 6 15 27 33 46 17 19 41 46 52 60 11
13 16 18 11 11 -5 -7 -6 -16 -3 -20 4 -3 28 16 54 42 26 26 74 68 106 93 59
46 71 67 20 36 -30 -19 -55 -41 -117 -101 -26 -26 -34 -30 -23 -13 34 53 157
143 182 133 9 -3 26 3 38 15 12 12 49 33 82 48 33 15 67 32 75 38 24 19 239
86 305 95 87 12 281 13 372 0z m86 4 c-7 -2 -19 -2 -25 0 -7 3 -2 5 12 5 14 0
19 -2 13 -5z m-556 -9 c-3 -3 -12 -4 -19 -1 -8 3 -5 6 6 6 11 1 17 -2 13 -5z
m-170 -60 c-3 -3 -12 -4 -19 -1 -8 3 -5 6 6 6 11 1 17 -2 13 -5z m-148 -68
c-2 -2 -15 -9 -29 -15 -24 -11 -24 -11 -6 3 16 13 49 24 35 12z m1590 -311
c16 -22 -95 90 -142 145 -17 19 5 -1 49 -45 44 -44 86 -89 93 -100z m-2053
-156 c-14 -29 -26 -47 -26 -41 0 15 44 101 49 96 2 -1 -8 -27 -23 -55z m2156
1 c10 -10 14 -22 9 -24 -4 -3 -13 6 -19 19 -14 30 -12 31 10 5z m47 -95 c0 -5
-6 1 -14 15 -8 14 -14 30 -14 35 0 6 6 -1 14 -15 8 -14 14 -29 14 -35z m20
-60 c0 -5 -4 -3 -9 5 -5 8 -9 22 -9 30 0 16 17 -16 18 -35z m38 -107 c-3 -8
-6 -5 -6 6 -1 11 2 17 5 13 3 -3 4 -12 1 -19z m-2380 -20 c-3 -8 -6 -5 -6 6
-1 11 2 17 5 13 3 -3 4 -12 1 -19z m2390 -20 c-3 -8 -6 -5 -6 6 -1 11 2 17 5
13 3 -3 4 -12 1 -19z m-2420 -420 c-2 -13 -4 -3 -4 22 0 25 2 35 4 23 2 -13 2
-33 0 -45z m2440 -45 c-3 -10 -5 -4 -5 12 0 17 2 24 5 18 2 -7 2 -21 0 -30z
m-2420 -95 c-3 -7 -5 -2 -5 12 0 14 2 19 5 13 2 -7 2 -19 0 -25z m40 -120 c-3
-8 -6 -5 -6 6 -1 11 2 17 5 13 3 -3 4 -12 1 -19z m2233 -215 c0 -5 -10 -19
-21 -33 l-21 -25 18 33 c18 32 24 38 24 25z m-2091 -63 c11 -24 11 -24 -3 -6
-9 11 -16 24 -16 30 0 12 5 7 19 -24z m1840 -243 c-2 -1 -13 -9 -24 -17 -19
-14 -19 -14 -6 3 7 9 18 17 24 17 6 0 8 -1 6 -3z m-184 -127 c-3 -5 -12 -10
-18 -10 -7 0 -6 4 3 10 19 12 23 12 15 0z m-1205 -35 c14 -8 21 -14 15 -14 -5
0 -21 6 -35 14 -14 8 -20 14 -15 14 6 0 21 -6 35 -14z m60 -25 c8 -5 11 -10 5
-10 -5 0 -17 5 -25 10 -8 5 -10 10 -5 10 6 0 17 -5 25 -10z m1010 -10 c-8 -5
-19 -10 -25 -10 -5 0 -3 5 5 10 8 5 20 10 25 10 6 0 3 -5 -5 -10z m-70 -30 c0
-5 -5 -10 -11 -10 -5 0 -7 5 -4 10 3 6 8 10 11 10 2 0 4 -4 4 -10z m-33 -16
c-3 -3 -12 -4 -19 -1 -8 3 -5 6 6 6 11 1 17 -2 13 -5z m-644 -31 c-7 -2 -19
-2 -25 0 -7 3 -2 5 12 5 14 0 19 -2 13 -5z"/>
<path d="M1190 2374 c0 -3 7 -12 15 -20 18 -18 22 -184 5 -184 -5 0 -10 -4
-10 -10 0 -5 18 -10 39 -10 22 0 43 5 46 10 3 6 -1 10 -9 10 -12 0 -16 11 -16
43 0 23 -3 66 -6 95 -6 44 -4 52 10 52 9 0 16 5 16 10 0 6 -20 10 -45 10 -25
0 -45 -3 -45 -6z"/>
<path d="M996 2339 c-19 -15 -26 -30 -26 -54 0 -37 20 -55 63 -55 42 0 87 -21
87 -40 0 -41 -81 -60 -106 -25 -17 23 -28 14 -19 -14 13 -41 125 -23 147 23
18 41 -10 72 -71 81 -64 9 -90 27 -75 52 13 22 69 29 90 12 19 -15 28 -6 19
20 -9 29 -72 29 -109 0z"/>
<path d="M820 2285 c-25 -13 -62 -31 -83 -41 -26 -11 -36 -21 -33 -31 3 -8 6
-19 6 -24 0 -5 5 -9 11 -9 6 0 9 9 6 19 -4 15 2 22 24 30 27 9 29 7 54 -37 41
-73 57 -116 45 -120 -5 -2 -10 -7 -10 -12 0 -5 18 -1 40 7 41 16 53 32 24 29
-18 -1 -22 5 -62 91 -27 58 -28 64 -12 78 21 19 40 19 40 0 0 -8 7 -15 15 -15
20 0 19 23 -2 42 -16 14 -22 14 -63 -7z"/>
<path d="M1700 2301 c0 -6 4 -11 10 -11 9 0 -2 -30 -46 -127 -11 -25 -24 -41
-31 -38 -7 2 -13 -2 -13 -9 0 -8 17 -21 38 -29 41 -16 51 -15 34 6 -9 10 -8
22 0 45 10 26 16 31 33 25 11 -4 38 -8 60 -8 34 0 42 4 53 29 13 25 12 31 -5
55 -27 36 -133 86 -133 62z m104 -67 c3 -8 1 -25 -4 -39 -10 -27 -38 -33 -69
-13 -16 9 -17 16 -9 37 16 43 27 51 53 39 13 -6 26 -17 29 -24z"/>
<path d="M1420 2230 c0 -11 68 -25 78 -16 3 4 0 11 -8 16 -20 13 -70 13 -70 0z"/>
<path d="M1912 2198 c-7 -7 -12 -18 -12 -25 0 -15 17 -18 22 -3 2 5 15 2 30
-8 l27 -17 -55 -70 c-30 -39 -61 -69 -69 -69 -23 3 -18 -10 15 -34 36 -27 43
-28 36 -4 -6 18 15 51 77 127 25 30 25 30 46 11 15 -13 19 -26 15 -40 -7 -21
-6 -21 15 -2 11 11 21 20 21 22 0 4 -129 107 -146 117 -6 3 -16 1 -22 -5z"/>
<path d="M595 2150 c-11 -5 -33 -22 -48 -39 -16 -17 -33 -31 -38 -31 -6 0 -8
-4 -5 -9 3 -5 15 -7 26 -4 11 3 20 1 20 -4 0 -6 23 -36 51 -68 28 -32 48 -64
45 -71 -7 -19 1 -18 35 7 16 11 29 27 29 36 0 13 -2 13 -16 2 -14 -12 -20 -9
-41 16 l-26 29 31 26 c45 37 48 89 7 108 -30 14 -42 14 -70 2z m60 -53 c8 -25
6 -31 -15 -48 l-25 -19 -27 32 c-26 30 -27 33 -11 50 25 28 65 20 78 -15z"/>
<path d="M1154 2080 c-135 -19 -261 -67 -373 -143 -83 -56 -215 -181 -225
-215 -4 -12 -11 -22 -16 -22 -4 0 -17 -20 -29 -45 -14 -29 -29 -47 -45 -51
-13 -3 -38 -25 -55 -49 -35 -49 -40 -97 -15 -133 12 -17 15 -44 13 -115 -1
-73 5 -293 10 -329 1 -4 8 -5 17 -1 14 5 15 1 9 -28 -6 -33 -6 -32 17 11 18
33 21 49 13 59 -8 12 -6 13 7 8 10 -3 20 -2 23 4 24 38 156 54 201 24 19 -12
25 -13 22 -3 -3 7 -26 18 -52 25 -26 6 -53 16 -59 21 -24 20 -80 21 -117 2
-40 -20 -66 -47 -56 -57 3 -3 6 -1 6 5 0 21 67 52 114 52 25 0 46 -4 46 -10 0
-5 -10 -10 -22 -10 -13 -1 -34 -7 -48 -15 -14 -8 -35 -14 -46 -15 -12 0 -27
-7 -34 -15 -7 -8 -16 -13 -20 -10 -5 3 -10 0 -13 -7 -2 -7 -2 1 1 17 12 80 57
115 148 115 75 0 66 6 -21 13 -41 4 -64 3 -56 -2 10 -7 4 -12 -22 -22 -20 -7
-38 -20 -39 -28 -2 -8 -3 48 -3 125 0 136 1 141 20 136 17 -5 18 -3 7 11 -17
20 -7 73 16 87 15 8 15 9 2 10 -9 0 -21 -5 -28 -12 -9 -9 -12 -8 -12 5 0 9 10
26 23 38 l22 21 -22 -11 c-27 -14 -38 -49 -28 -97 4 -26 3 -34 -5 -29 -13 8
-32 51 -35 78 -3 28 31 94 58 112 34 22 116 30 162 15 64 -21 152 -79 197
-131 70 -79 151 -163 179 -184 14 -11 29 -34 33 -50 4 -20 3 -25 -3 -16 -7 11
-11 10 -20 -7 -17 -31 -14 -35 19 -28 22 4 32 1 36 -9 8 -20 -5 -85 -16 -85
-16 0 -86 77 -113 123 -15 24 -42 58 -60 74 -19 17 -36 36 -39 43 -3 9 -7 8
-17 -4 -11 -14 -11 -16 4 -16 20 0 67 -48 103 -105 14 -22 46 -61 73 -86 l48
-47 -28 -26 -27 -26 -94 41 c-106 47 -111 50 -91 57 20 7 51 40 50 55 0 6 -5
3 -10 -8 -15 -30 -69 -59 -83 -44 -8 8 -8 13 2 16 26 10 43 35 36 57 -8 28
-44 58 -61 52 -7 -3 -13 -1 -13 3 0 5 -3 18 -6 28 -4 13 -3 15 4 4 7 -9 12
-10 16 -2 4 6 2 11 -3 11 -26 0 -8 19 27 28 20 5 29 10 20 11 -14 1 -18 10
-19 39 l-1 37 -9 -39 c-5 -22 -18 -46 -29 -53 -27 -19 -26 -103 2 -103 5 0 6
5 3 11 -5 7 3 9 21 7 21 -2 30 -10 35 -31 11 -41 -24 -61 -94 -54 -45 5 -47 5
-17 -4 19 -5 43 -14 53 -20 11 -6 60 -26 110 -45 50 -19 94 -38 97 -42 11 -16
82 -30 110 -22 32 9 52 -13 22 -25 -14 -5 -14 -8 -2 -15 33 -21 -50 -59 -142
-65 -26 -2 -44 -11 -62 -31 -35 -40 -32 -49 3 -13 16 16 39 29 51 29 19 0 21
-3 13 -32 -11 -44 -7 -138 6 -151 18 -18 13 -26 -24 -33 -19 -3 -38 -10 -41
-15 -3 -5 -15 -9 -27 -10 -12 0 -16 -3 -9 -6 7 -3 20 -1 30 3 9 4 22 9 27 9 6
1 23 7 38 13 16 7 34 12 40 12 15 0 47 76 47 112 0 20 6 28 23 31 21 4 20 4
-3 5 -14 1 -32 -3 -40 -8 -10 -6 -11 -10 -2 -10 15 0 16 -41 0 -75 -11 -24
-38 -35 -38 -16 0 5 -3 16 -6 24 -3 8 4 24 16 35 12 11 19 25 16 31 -10 15 14
25 74 32 l55 6 -48 2 c-60 1 -103 -20 -122 -62 l-15 -32 5 49 c9 84 73 126
169 112 64 -10 156 -80 197 -152 17 -30 34 -53 36 -50 3 3 -1 16 -10 30 -16
23 -15 24 15 30 52 10 66 7 71 -16 4 -21 4 -21 6 2 1 20 9 28 34 35 26 8 40 6
75 -12 24 -13 48 -23 55 -23 11 1 -20 31 -48 48 -7 4 -16 18 -20 32 -7 22 -6
23 8 12 9 -8 22 -10 28 -6 7 4 9 3 6 -3 -4 -6 0 -19 8 -29 16 -22 19 -7 6 29
-14 37 -20 88 -10 82 5 -4 17 -1 26 4 11 6 13 11 5 11 -9 0 -10 5 -3 19 9 16
28 23 116 45 11 3 2 3 -20 1 -22 -2 -51 -7 -64 -11 -18 -5 -23 -4 -19 7 3 8
13 16 24 18 10 1 26 9 34 16 8 7 49 25 90 40 41 15 84 33 95 39 11 6 38 16 60
23 l40 12 -45 -5 c-59 -7 -100 8 -100 38 0 43 42 71 59 40 8 -15 11 -13 21 12
12 33 7 55 -19 85 -15 17 -23 19 -51 11 -18 -5 -37 -7 -42 -4 -5 3 -19 -7 -31
-22 -36 -46 -77 -108 -77 -118 0 -13 -50 -76 -60 -76 -13 0 -21 31 -24 100
l-3 62 41 31 c23 17 59 52 81 78 124 146 193 200 283 220 68 16 138 4 165 -28
12 -14 28 -31 35 -39 22 -22 15 -92 -12 -121 l-25 -26 8 35 c7 31 6 37 -13 46
-43 22 -63 22 -106 0 -57 -30 -90 -89 -90 -164 0 -46 4 -57 35 -90 19 -20 38
-34 42 -31 3 4 -11 22 -32 41 -37 34 -37 36 -33 96 2 34 9 65 14 68 5 4 17 19
27 34 20 32 79 60 105 51 33 -13 41 -28 32 -67 -4 -20 -4 -36 1 -36 5 0 10
-19 11 -42 l1 -43 6 50 7 50 8 -75 c4 -43 4 -105 -2 -145 l-9 -70 -3 55 c-2
30 -5 45 -7 33 -2 -12 -12 -24 -21 -26 -15 -4 -15 -5 1 -6 9 0 17 -5 17 -11 0
-13 -10 -12 -40 5 -16 9 -20 15 -10 16 8 0 0 5 -19 10 -18 6 -36 8 -39 5 -3
-3 3 -7 14 -8 10 -1 -8 -4 -41 -8 l-60 -7 62 -1 c34 -1 73 -7 86 -13 28 -13
67 -76 67 -108 0 -27 -16 -27 -30 -1 -6 11 -18 20 -28 20 -9 0 -42 9 -72 21
-38 14 -67 19 -92 15 -45 -7 -88 -26 -88 -38 0 -5 10 -2 23 6 57 37 165 23
213 -29 14 -15 29 -23 36 -19 8 5 9 2 5 -9 -3 -9 -2 -27 3 -39 8 -22 9 -21 10
7 1 17 4 24 7 18 13 -35 22 -4 22 79 -1 58 3 94 10 96 14 5 15 178 1 187 -14
9 -13 52 2 57 6 2 13 32 16 67 4 62 4 63 -36 102 -23 21 -47 39 -55 39 -7 0
-25 24 -39 54 -34 68 -167 208 -257 270 -75 51 -228 118 -311 135 -73 16 -260
22 -336 11z m136 -11 c-50 -5 -42 -6 37 -3 95 3 206 -9 228 -27 6 -4 42 -19
80 -34 65 -24 196 -100 203 -118 2 -4 18 -18 36 -30 27 -18 69 -63 138 -147
29 -36 36 -46 42 -66 5 -18 1 -20 -35 -23 -23 -1 -58 -8 -78 -15 -58 -20 -163
-95 -196 -138 -44 -59 -166 -179 -178 -175 -6 2 -15 16 -20 32 -17 51 -48 70
-126 81 -39 5 -49 9 -37 16 9 5 23 5 33 0 10 -5 33 -12 51 -15 28 -6 32 -4 32
16 -1 45 -22 113 -42 134 -12 13 -22 40 -25 65 -4 46 -26 88 -47 88 -22 0 -74
30 -80 46 -4 11 -14 13 -43 8 -50 -9 -52 -12 -23 -34 20 -16 22 -20 8 -20 -14
0 -18 -9 -18 -40 0 -36 -2 -40 -25 -40 -20 0 -25 -5 -25 -26 0 -14 -6 -38 -14
-52 -8 -15 -17 -43 -21 -63 -3 -21 -21 -54 -43 -79 -20 -24 -36 -52 -34 -61 3
-17 -23 -79 -33 -79 -25 0 -134 108 -208 203 -55 72 -187 143 -277 149 -22 2
-40 4 -40 5 0 2 17 27 37 58 41 60 59 68 22 9 -13 -22 -17 -34 -8 -29 8 5 24
8 36 7 11 -2 24 2 28 7 12 21 25 11 25 -19 0 -44 27 -51 57 -14 20 26 23 27
23 9 0 -47 45 -60 61 -17 l11 27 23 -29 c24 -30 45 -28 45 3 0 31 24 43 38 20
14 -21 41 -26 43 -6 1 6 0 22 -1 35 -2 25 0 26 35 10 34 -15 49 -1 36 36 -10
26 -10 27 24 24 45 -3 50 4 32 41 l-15 31 29 0 c39 0 51 28 21 48 -27 18 -28
32 -3 32 23 0 45 25 36 40 -4 6 -19 16 -33 21 l-26 10 24 12 c14 7 26 23 28
35 3 16 11 22 30 23 15 1 20 3 12 5 -8 2 -35 0 -60 -5 -25 -5 -35 -9 -23 -10
33 -2 38 -19 9 -33 -33 -15 -33 -31 1 -54 l28 -18 -33 -13 c-39 -16 -40 -27
-7 -49 34 -22 31 -36 -7 -32 -28 2 -33 0 -32 -17 1 -11 5 -28 9 -38 7 -16 3
-18 -26 -15 -34 3 -34 3 -31 -34 3 -40 -7 -48 -28 -23 -21 25 -48 2 -42 -37
l5 -33 -26 24 c-33 30 -55 22 -59 -21 l-4 -33 -13 28 c-17 33 -61 39 -61 8 0
-33 -17 -33 -29 -1 -12 34 -35 39 -51 10 -17 -31 -40 -25 -40 10 0 30 -21 42
-35 20 -3 -5 -13 -10 -20 -10 -27 0 -13 71 20 105 17 16 33 29 38 27 4 -1 6 3
5 9 -2 6 3 14 11 17 8 3 11 0 7 -7 -12 -19 0 -12 20 11 19 22 19 23 -1 8 -11
-8 -7 0 10 18 16 18 34 31 40 29 5 -3 30 7 55 20 50 28 65 40 37 30 -12 -5
-17 -3 -15 5 2 6 31 22 64 36 32 13 79 32 104 43 67 28 183 46 290 46 l65 -1
-65 -7z m-482 -143 c-16 -8 -34 -18 -40 -21 -7 -4 -2 3 12 14 14 11 32 21 40
21 8 0 3 -7 -12 -14z m479 -180 c0 -8 -6 -12 -14 -9 -7 3 -10 9 -7 14 8 14 21
11 21 -5z m23 -45 c-20 -5 -26 -14 -28 -43 -2 -27 -8 -37 -25 -42 -26 -7 -35
0 -19 16 7 7 12 24 12 39 0 30 11 38 55 37 29 0 29 0 5 -7z m93 -20 c4 -4 10
-24 14 -44 l6 -36 -31 8 c-17 5 -47 5 -67 1 -35 -8 -37 -7 -31 13 3 12 6 32 6
44 0 14 7 23 23 26 26 5 69 -1 80 -12z m-143 -157 c0 -40 -33 -81 -75 -90 -30
-7 -30 -7 -12 14 10 11 21 40 24 64 9 75 63 86 63 12z m179 28 c18 -13 30 -35
37 -69 l11 -50 -41 9 c-54 13 -162 3 -194 -18 l-25 -17 21 35 c13 21 22 52 22
76 0 38 2 40 38 49 52 14 100 8 131 -15z m-259 -56 c0 -8 -9 -24 -19 -37 l-19
-24 11 38 c12 37 27 50 27 23z m27 -92 c-3 -3 -12 -4 -19 -1 -8 3 -5 6 6 6 11
1 17 -2 13 -5z m66 -11 c-7 -2 -19 -2 -25 0 -7 3 -2 5 12 5 14 0 19 -2 13 -5z
m-80 -40 c-3 -21 -12 -45 -19 -54 -8 -8 -14 -20 -14 -26 0 -6 -14 -13 -31 -17
-53 -10 -61 -8 -54 15 5 14 4 19 -4 15 -6 -4 -9 -2 -6 6 20 57 26 68 35 63 7
-4 5 -14 -5 -28 -21 -30 -19 -43 4 -23 10 10 22 33 25 52 6 31 10 34 41 34 33
0 34 0 28 -37z m312 12 c8 -11 19 -25 24 -32 6 -6 14 -37 19 -67 7 -44 6 -54
-3 -46 -7 6 -42 13 -79 17 -36 3 -66 6 -66 7 0 1 -11 33 -25 71 l-24 70 0 -48
c-1 -27 3 -46 7 -43 5 3 6 -8 4 -25 -4 -28 -6 -29 -61 -29 -31 0 -79 -6 -107
-13 l-50 -13 28 50 c15 28 28 58 28 66 1 46 49 59 198 57 81 -2 95 -5 107 -22z
m-1078 -162 c-2 -32 -3 -8 -3 52 0 61 1 87 3 58 2 -29 2 -78 0 -110z m1420
105 c4 -7 8 -25 9 -39 1 -21 -2 -25 -16 -22 -10 3 -28 -5 -40 -17 -27 -27 -23
-70 8 -86 32 -16 21 -23 -128 -83 -41 -17 -78 -31 -82 -31 -19 0 -7 65 17 90
26 28 95 137 95 151 0 14 72 48 102 49 15 0 30 -6 35 -12z m-431 -181 c23 -94
25 -137 8 -181 -3 -8 7 -18 24 -25 21 -9 32 -22 36 -43 3 -17 5 -33 3 -34 -1
-2 -23 14 -47 35 -25 21 -56 41 -68 46 -21 6 -23 11 -18 43 3 21 9 95 12 166
8 147 13 146 50 -7z m-283 106 c-7 -2 -21 -2 -30 0 -10 3 -4 5 12 5 17 0 24
-2 18 -5z m-8 -23 c-3 -5 1 -29 9 -53 9 -27 12 -56 7 -77 -6 -33 -9 -35 -56
-40 -28 -3 -56 -9 -62 -13 -21 -13 -15 -2 18 32 28 29 31 38 29 89 -3 75 -4
72 31 72 17 0 28 -4 24 -10z m225 0 c0 -5 -12 -10 -27 -11 -45 -1 -105 -7
-143 -15 -28 -5 -33 -4 -23 6 23 24 193 42 193 20z m178 -15 c16 -17 15 -17
-13 -10 -49 12 -59 13 -82 14 -13 1 -23 6 -23 12 0 18 99 5 118 -16z m-171
-97 c-11 -137 -2 -128 -128 -128 -61 0 -110 -4 -114 -10 -9 -15 -25 -12 -25 5
0 8 5 15 10 15 33 0 72 129 51 168 -10 19 -8 21 21 25 18 2 69 5 112 5 l79 2
-6 -82z m82 23 c1 -35 -5 -22 -12 24 -5 28 -4 34 3 20 5 -11 9 -31 9 -44z
m113 43 c13 -9 30 -119 24 -162 -7 -55 -11 -61 -36 -55 -13 4 -24 22 -35 62
-9 31 -24 82 -34 114 l-19 59 47 -7 c25 -4 49 -9 53 -11z m-57 -164 c15 -52
33 -103 39 -112 23 -37 -4 -27 -49 17 -40 41 -46 51 -39 74 7 23 9 38 13 105
2 29 6 19 36 -84z m610 30 c3 -5 -1 -10 -9 -10 -9 0 -16 5 -16 10 0 6 4 10 9
10 6 0 13 -4 16 -10z m-881 -115 c26 -13 53 -28 60 -33 24 -20 138 -52 164
-47 15 3 20 2 12 -1 -8 -4 -18 -11 -21 -16 -3 -5 -14 -11 -25 -13 -119 -28
-118 -28 -129 -9 -5 10 -23 30 -39 44 -16 14 -37 32 -46 42 -10 9 -27 19 -38
22 -11 4 -26 13 -32 21 -21 25 38 19 94 -10z m136 3 c25 -13 54 -33 64 -46 17
-23 17 -23 -11 -16 -15 3 -64 24 -108 45 l-80 39 44 0 c25 0 64 -10 91 -22z"/>
<path d="M1398 2053 c6 -2 18 -2 25 0 6 3 1 5 -13 5 -14 0 -19 -2 -12 -5z"/>
<path d="M1440 2027 c0 -16 8 -26 28 -33 l27 -10 -30 -15 c-42 -20 -45 -48 -6
-55 36 -8 39 -17 11 -37 -27 -19 -16 -47 17 -47 20 0 24 -4 18 -17 -20 -49
-19 -53 19 -53 34 0 35 -1 30 -30 -5 -22 -2 -31 10 -36 10 -4 22 -2 29 5 22
22 37 13 31 -19 -9 -41 18 -51 52 -20 l24 23 0 -25 c0 -35 20 -50 43 -34 9 7
17 18 17 25 0 19 15 12 25 -11 12 -27 43 -36 50 -14 17 53 15 52 39 21 27 -33
46 -27 46 17 0 25 3 29 18 22 9 -4 29 -8 45 -8 15 -1 27 -5 27 -10 0 -5 3 -7
6 -3 14 13 -94 142 -160 191 l-39 30 7 -64 c4 -36 10 -67 12 -70 3 -2 25 3 50
12 l44 16 30 -36 c44 -53 39 -79 -8 -46 -28 19 -42 11 -42 -27 0 -34 -14 -38
-30 -9 -16 30 -50 26 -50 -6 0 -33 -33 -30 -38 4 -4 29 -26 28 -46 -3 -19 -30
-36 -25 -36 11 0 29 -24 32 -52 7 -17 -15 -18 -15 -18 14 0 40 -7 45 -42 27
-36 -19 -45 -12 -29 22 16 35 6 46 -36 38 -34 -7 -35 -6 -23 17 7 13 18 27 24
32 14 9 -14 29 -32 22 -27 -10 -33 7 -12 30 26 28 20 42 -23 53 l-32 9 33 17
c36 19 42 42 12 51 -25 8 -26 32 -2 38 10 3 6 5 -10 6 -23 1 -28 -3 -28 -22z
m443 -202 c31 -30 34 -41 10 -48 -10 -2 -26 -8 -35 -12 -16 -6 -18 -1 -18 39
0 25 3 46 8 46 4 0 20 -11 35 -25z"/>
<path d="M1518 2023 c7 -3 16 -2 19 1 4 3 -2 6 -13 5 -11 0 -14 -3 -6 -6z"/>
<path d="M1005 1966 c0 -64 -5 -72 -37 -54 -64 36 -74 61 -30 76 15 6 22 11
16 11 -7 1 -31 -8 -55 -19 -24 -11 -39 -20 -34 -20 6 0 39 -20 73 -45 38 -28
64 -41 68 -34 11 18 18 139 8 139 -5 0 -9 -24 -9 -54z"/>
<path d="M1550 1983 c0 -21 5 -55 10 -75 l11 -38 61 45 c36 26 66 41 72 37 23
-18 106 -63 106 -58 0 3 -21 18 -47 33 -27 15 -50 30 -53 35 -6 8 -135 58
-150 58 -6 0 -10 -17 -10 -37z m111 -9 c13 -8 -17 -41 -53 -60 -36 -19 -35
-19 -42 25 -10 63 -2 72 45 56 22 -8 45 -17 50 -21z"/>
<path d="M1670 1866 c-26 -19 -45 -41 -45 -52 0 -22 65 -61 110 -66 l30 -3 -3
60 c-4 53 -22 96 -41 94 -3 0 -26 -15 -51 -33z m67 2 c12 -17 16 -108 5 -108
-25 0 -79 25 -95 43 -18 20 -17 21 25 48 50 32 53 33 65 17z"/>
<path d="M739 1878 c0 -2 -3 -28 -5 -58 -3 -30 -6 -56 -8 -57 -6 -6 -66 22
-66 30 0 14 -30 -13 -41 -37 -9 -19 -8 -19 7 1 15 21 18 22 51 8 54 -23 70
-19 77 16 9 48 7 99 -4 99 -5 0 -10 -1 -11 -2z"/>
<path d="M829 1859 c-13 -26 -20 -107 -9 -114 21 -13 130 43 130 66 0 11 -61
55 -87 63 -16 5 -25 1 -34 -15z m91 -34 c6 -8 9 -19 5 -26 -8 -11 -67 -39 -85
-39 -13 0 -13 65 0 90 9 17 12 17 39 4 16 -8 34 -21 41 -29z"/>
<path d="M1774 1284 c-18 -14 -18 -15 5 -4 13 7 34 10 47 7 13 -2 21 0 18 4
-8 14 -49 10 -70 -7z"/>
<path d="M1730 1241 c-12 -23 -13 -78 -2 -85 4 -2 6 13 4 33 -3 26 2 43 13 54
9 10 12 17 6 17 -6 0 -15 -9 -21 -19z"/>
<path d="M1757 1129 c7 -7 15 -10 18 -7 3 3 -2 9 -12 12 -14 6 -15 5 -6 -5z"/>
<path d="M386 1897 c-26 -21 -28 -27 -22 -64 6 -35 12 -41 43 -51 39 -12 57
-6 87 27 19 21 19 21 -5 17 -13 -3 -27 -5 -31 -5 -4 -1 -5 -8 -2 -16 12 -30
-40 1 -58 34 -13 27 -17 29 -21 14 -3 -15 -4 -15 -3 2 1 11 7 19 14 17 19 -4
46 25 29 31 -6 3 -2 6 11 6 14 1 21 -3 16 -10 -4 -7 2 -9 17 -7 22 3 24 0 21
-30 -1 -21 2 -31 8 -27 5 3 10 19 10 35 0 23 -6 30 -31 39 -44 15 -50 14 -83
-12z"/>
<path d="M2099 1913 c-9 -2 -21 -20 -27 -40 -10 -31 -8 -40 10 -65 17 -25 26
-29 61 -26 35 2 44 8 56 32 18 38 5 79 -26 81 -14 1 -19 -3 -16 -12 3 -7 12
-12 21 -11 10 2 17 -5 19 -17 l3 -20 -9 20 c-9 19 -10 19 -10 -2 -1 -12 -9
-27 -18 -33 -16 -10 -16 -11 4 -7 15 3 20 1 16 -8 -7 -20 -73 -14 -70 5 1 8
-5 14 -13 13 -11 -2 -15 6 -15 27 0 19 4 29 12 26 7 -3 10 1 6 10 -4 10 0 13
13 8 16 -5 17 -4 4 6 -12 9 -8 11 23 6 20 -2 37 -1 37 5 0 9 -50 11 -81 2z"/>
<path d="M296 1711 c-4 -5 10 -15 29 -22 35 -13 45 -32 24 -44 -6 -4 -13 2
-16 14 -7 26 -23 28 -23 2 0 -17 18 -31 39 -31 10 0 33 51 26 58 -3 3 -5 2 -5
-2 0 -4 -15 2 -34 14 -20 12 -37 17 -40 11z"/>
<path d="M2292 1649 c11 -17 10 -22 -6 -35 -29 -21 -54 -17 -59 9 -4 19 -4 19
-5 2 -3 -39 11 -48 49 -32 19 7 40 12 47 10 6 -3 12 0 12 6 0 6 -4 11 -9 11
-5 0 -12 11 -15 25 -4 14 -11 25 -16 25 -6 0 -5 -9 2 -21z"/>
<path d="M260 1641 c0 -6 7 -14 15 -19 24 -13 8 -45 -15 -32 -24 13 -30 13
-30 -1 0 -5 16 -17 35 -25 50 -20 45 -37 -10 -32 -31 2 -45 -1 -45 -9 0 -7 6
-10 14 -7 8 3 24 -4 37 -17 l22 -22 -25 -13 c-14 -7 -29 -21 -32 -30 -5 -13
-10 -14 -18 -6 -8 8 -8 15 2 27 7 8 8 15 2 15 -16 0 -23 -30 -12 -51 14 -24
14 -24 44 8 28 29 48 24 28 -7 -7 -12 -8 -20 -2 -20 5 0 12 11 16 25 6 25 4
42 -12 79 -6 16 -4 18 10 13 13 -5 19 -1 23 13 3 11 9 20 14 20 5 0 9 5 9 10
0 6 -8 10 -17 8 -23 -4 -30 30 -8 38 9 4 20 1 25 -5 5 -10 9 -9 13 3 4 10 1
16 -9 16 -8 0 -28 7 -44 15 -17 9 -30 11 -30 6z"/>
<path d="M2250 1630 c0 -5 4 -10 9 -10 6 0 13 5 16 10 3 6 -1 10 -9 10 -9 0
-16 -4 -16 -10z"/>
<path d="M2331 1554 c10 -13 10 -17 -2 -25 -13 -8 -43 -13 -61 -10 -10 1 -10
-13 -1 -22 3 -4 11 -2 18 3 6 5 25 10 42 12 29 2 30 4 21 30 -6 15 -15 28 -20
28 -6 0 -5 -7 3 -16z"/>
<path d="M592 1525 c53 -14 124 -65 133 -95 7 -21 21 -26 27 -10 2 6 16 -8 31
-32 33 -50 36 -39 4 14 -37 59 -171 140 -227 137 -8 0 6 -7 32 -14z"/>
<path d="M1988 1533 c6 -2 18 -2 25 0 6 3 1 5 -13 5 -14 0 -19 -2 -12 -5z"/>
<path d="M2111 1515 c9 -11 19 -27 22 -35 5 -13 6 -13 6 1 1 9 -9 24 -21 35
-23 19 -23 19 -7 -1z"/>
<path d="M1890 1494 c-63 -42 -142 -136 -127 -150 2 -3 10 9 17 25 6 16 20 37
31 47 18 16 19 16 19 -2 1 -13 7 -7 20 18 11 20 28 39 39 43 11 3 22 12 25 20
7 19 6 19 -24 -1z"/>
<path d="M518 1473 c7 -3 16 -2 19 1 4 3 -2 6 -13 5 -11 0 -14 -3 -6 -6z"/>
<path d="M2349 1461 c13 -24 5 -31 -36 -31 -27 0 -33 -4 -33 -22 0 -17 3 -19
12 -10 7 7 27 12 45 12 20 0 33 5 33 13 0 24 -13 57 -22 57 -5 0 -4 -8 1 -19z"/>
<path d="M563 1456 c10 -8 30 -29 43 -47 13 -18 24 -28 24 -22 0 16 -39 62
-63 74 -21 9 -21 9 -4 -5z"/>
<path d="M190 1385 c0 -8 16 -14 45 -17 31 -2 45 1 45 9 0 7 -7 10 -15 7 -8
-3 -28 -1 -45 4 -24 9 -30 8 -30 -3z"/>
<path d="M1821 1374 c0 -11 3 -14 6 -6 3 7 2 16 -1 19 -3 4 -6 -2 -5 -13z"/>
<path d="M632 1350 c0 -14 2 -19 5 -12 2 6 2 18 0 25 -3 6 -5 1 -5 -13z"/>
<path d="M2284 1363 c4 -5 27 -8 51 -8 24 0 41 3 38 8 -2 4 -25 7 -50 7 -26 0
-43 -3 -39 -7z"/>
<path d="M191 1326 c-14 -25 -8 -46 12 -46 8 0 7 3 -2 9 -23 15 -5 41 29 41
30 0 53 -25 34 -39 -12 -8 -33 -42 -40 -63 -4 -10 -13 -18 -20 -18 -8 0 -14
-4 -14 -10 0 -21 31 -9 40 15 5 14 16 25 25 25 18 0 20 -26 3 -33 -10 -4 -10
-6 0 -6 18 -1 26 27 13 43 -9 10 -9 20 0 40 10 22 9 29 -6 46 -25 27 -59 25
-74 -4z"/>
<path d="M2290 1311 c0 -5 17 -12 38 -16 l37 -8 -37 -16 c-21 -9 -38 -21 -38
-28 0 -15 82 17 87 34 2 6 -17 18 -42 26 -25 9 -45 12 -45 8z"/>
<path d="M813 1257 c18 -18 34 -31 36 -30 6 4 -51 63 -60 63 -4 0 7 -15 24
-33z"/>
<path d="M631 1258 c-1 -10 -12 -25 -25 -33 -13 -9 -27 -24 -31 -33 -3 -9 11
-1 31 19 20 21 34 43 31 50 -4 10 -6 9 -6 -3z"/>
<path d="M2360 1210 c-8 -5 -27 -6 -42 -3 -17 3 -28 1 -28 -6 0 -6 9 -11 20
-11 11 0 20 -7 20 -15 0 -18 -36 -20 -43 -2 -3 6 -6 3 -6 -9 -1 -17 4 -20 29
-16 17 2 37 -1 45 -8 12 -10 15 -9 15 4 0 9 -7 16 -15 16 -21 0 -19 9 8 30 23
19 21 35 -3 20z"/>
<path d="M458 1153 c7 -3 16 -2 19 1 4 3 -2 6 -13 5 -11 0 -14 -3 -6 -6z"/>
<path d="M202 1099 c1 -22 6 -43 10 -45 4 -3 8 -1 8 4 0 6 9 8 20 5 11 -3 20
0 20 6 0 5 -7 8 -15 5 -22 -9 -18 9 5 29 25 21 27 21 34 0 3 -11 4 -8 3 7 -2
21 -7 24 -45 27 l-43 3 3 -41z m38 24 c0 -5 -7 -17 -15 -27 -14 -19 -15 -19
-15 7 0 17 5 27 15 27 8 0 15 -3 15 -7z"/>
<path d="M1975 1110 c-4 -6 11 -10 39 -10 60 0 96 -18 112 -55 7 -16 13 -24
14 -17 0 24 -20 51 -48 66 -37 18 -109 28 -117 16z"/>
<path d="M2281 1108 c-1 -12 9 -18 31 -20 23 -2 34 -9 36 -22 3 -16 -1 -18
-37 -14 -49 4 -53 -6 -10 -21 38 -13 59 -1 59 34 0 23 -17 35 -50 35 -10 0
-21 6 -23 13 -3 7 -6 6 -6 -5z"/>
<path d="M301 1013 c-1 -7 -19 -16 -41 -19 -42 -7 -43 -8 -31 -39 8 -19 8 -19
15 3 9 28 41 31 33 2 -5 -21 7 -28 18 -10 4 6 1 17 -5 25 -10 12 -9 15 4 15
10 0 16 -9 16 -24 0 -13 6 -26 13 -29 6 -2 -5 -11 -25 -20 -21 -9 -38 -21 -38
-27 0 -7 7 -5 16 4 31 32 43 18 19 -24 -21 -36 -19 -40 18 -28 17 5 37 10 44
11 6 0 9 6 6 13 -4 11 -8 11 -20 -1 -13 -13 -43 -21 -43 -12 0 2 9 15 21 28
16 19 19 31 13 64 -3 22 -10 42 -14 45 -4 3 -10 12 -13 20 -3 9 -6 10 -6 3z"/>
<path d="M823 965 c-35 -35 -36 -37 -30 -97 3 -35 12 -67 21 -76 15 -15 16
-14 16 5 0 11 -7 26 -15 33 -9 7 -15 29 -15 54 0 32 7 49 31 75 l30 34 89 -5
c48 -3 93 -2 99 1 6 4 -35 8 -90 9 l-100 3 -36 -36z"/>
<path d="M1742 989 c40 -15 69 -67 61 -111 -4 -28 -8 -34 -18 -25 -6 6 -10 19
-7 29 7 27 -42 68 -80 67 -33 -1 -33 -1 6 -9 22 -4 45 -16 53 -26 20 -27 16
-37 -9 -20 -23 17 -75 21 -94 8 -18 -12 -44 -56 -43 -72 0 -13 1 -13 7 1 32
73 92 90 136 38 14 -17 26 -39 26 -50 0 -10 4 -19 8 -19 11 0 32 69 32 103 0
31 -59 97 -86 96 -14 0 -12 -3 8 -10z"/>
<path d="M501 971 c-8 -5 -10 -14 -6 -21 5 -9 4 -11 -3 -6 -8 5 -12 -2 -12
-19 0 -22 -4 -26 -17 -21 -12 4 -10 -1 7 -16 14 -13 46 -52 71 -88 56 -78 245
-260 271 -260 4 0 30 -13 57 -30 28 -16 90 -41 138 -56 115 -36 104 -34 209
-46 191 -24 442 50 618 181 94 71 147 127 212 226 14 22 40 52 57 68 31 27 31
27 6 18 -27 -10 -39 -6 -39 12 0 5 9 7 20 4 11 -3 20 -1 20 3 0 17 -49 62 -62
57 -8 -4 -7 -6 5 -6 32 -2 17 -21 -17 -21 -26 0 -41 -7 -60 -31 -31 -37 -32
-58 -7 -101 l20 -32 -49 -56 c-27 -32 -46 -61 -42 -65 4 -5 -1 -5 -10 -2 -12
4 -15 2 -11 -9 3 -8 2 -14 -3 -12 -12 3 -104 -52 -104 -62 0 -4 -29 -20 -64
-36 -36 -15 -63 -31 -60 -36 3 -4 -3 -5 -12 -1 -13 5 -16 3 -11 -10 5 -14 2
-16 -21 -11 -22 4 -24 3 -12 -6 12 -9 9 -10 -15 -6 -24 5 -27 4 -15 -5 12 -9
10 -10 -10 -5 -14 3 -43 2 -65 -1 -37 -6 -38 -7 -15 -14 17 -5 6 -7 -30 -5
-30 2 -44 1 -30 -2 23 -4 23 -5 6 -11 -11 -4 -38 -4 -60 0 -23 4 -79 6 -126 4
-61 -3 -78 -2 -60 5 19 7 11 8 -35 5 -45 -3 -54 -2 -35 5 20 8 17 9 -15 4 -31
-4 -36 -2 -25 6 11 9 7 10 -19 5 -25 -5 -32 -4 -26 5 5 9 1 10 -15 5 -16 -5
-20 -4 -15 5 5 9 1 10 -15 5 -19 -6 -22 -4 -17 9 6 14 3 16 -14 11 -13 -5 -19
-3 -15 3 6 10 -69 47 -91 45 -7 0 -11 3 -8 7 2 4 -21 24 -52 45 -50 33 -85 66
-164 154 -17 19 -19 28 -10 40 22 31 31 63 25 87 -8 33 -50 64 -85 64 -34 0
-39 17 -6 23 19 4 19 4 2 5 -11 1 -26 -2 -34 -7z m1569 -40 c-20 -38 -30 -72
-20 -66 38 24 -63 -118 -121 -170 l-34 -30 35 40 c76 86 73 80 56 114 -33 62
-11 109 57 122 17 4 33 7 35 8 1 0 -2 -8 -8 -18z m-1486 -12 c14 -11 26 -29
26 -40 0 -23 -18 -61 -33 -71 -7 -4 -4 -16 7 -33 10 -15 13 -24 7 -21 -6 4
-20 26 -32 49 -12 26 -14 34 -4 23 19 -24 20 -8 1 17 -10 13 -16 15 -21 7 -8
-13 -25 5 -25 25 0 6 5 3 10 -5 5 -8 10 -10 10 -5 0 19 -15 32 -32 30 -11 -2
-15 2 -11 11 3 8 9 11 14 8 5 -3 9 2 9 10 0 23 42 20 74 -5z m71 -229 c10 -11
16 -20 13 -20 -3 0 -13 9 -23 20 -10 11 -16 20 -13 20 3 0 13 -9 23 -20z
m1215 -55 c0 -7 -73 -55 -84 -55 -6 0 10 13 34 29 50 33 50 33 50 26z m-104
-80 c-11 -8 -25 -15 -30 -15 -6 1 0 7 14 15 32 19 40 18 16 0z m-233 -102 c-7
-2 -19 -2 -25 0 -7 3 -2 5 12 5 14 0 19 -2 13 -5z"/>
<path d="M2010 829 c-7 -11 -9 -23 -6 -27 3 -3 6 0 6 6 0 6 7 18 16 26 8 9 11
16 5 16 -6 0 -15 -9 -21 -21z"/>
<path d="M598 973 c6 -2 18 -2 25 0 6 3 1 5 -13 5 -14 0 -19 -2 -12 -5z"/>
<path d="M1914 954 l-29 -25 28 12 c15 7 27 16 27 20 0 4 10 10 23 12 21 4 21
4 1 6 -11 0 -34 -10 -50 -25z"/>
<path d="M691 921 c27 -28 34 -45 30 -81 -2 -13 0 -13 8 -1 6 9 6 24 -1 40
-10 28 -46 71 -59 71 -4 0 6 -13 22 -29z"/>
<path d="M1613 943 c9 -2 25 -2 35 0 9 3 1 5 -18 5 -19 0 -27 -2 -17 -5z"/>
<path d="M2250 943 c-40 -15 -39 -47 3 -64 17 -7 35 -17 39 -23 3 -5 11 8 17
30 9 33 8 41 -6 52 -18 13 -29 14 -53 5z m50 -39 c0 -14 -4 -23 -9 -20 -4 3
-20 10 -35 16 -34 12 -25 30 15 30 24 0 29 -4 29 -26z"/>
<path d="M1861 917 c-6 -8 -13 -29 -16 -48 l-5 -34 11 35 c6 19 15 41 21 48 6
6 8 12 5 12 -2 0 -10 -6 -16 -13z"/>
<path d="M335 828 c-22 -12 -35 -28 -35 -42 0 -5 8 0 18 11 23 26 47 34 63 20
11 -10 11 -9 0 6 -16 20 -19 20 -46 5z"/>
<path d="M1151 813 c7 -12 15 -20 18 -17 3 2 -3 12 -13 22 -17 16 -18 16 -5
-5z"/>
<path d="M1060 808 c0 -6 3 -8 7 -5 3 4 17 -8 30 -25 26 -36 30 -89 8 -108 -8
-7 -15 -18 -15 -24 1 -6 10 0 20 13 30 35 26 92 -7 130 -29 32 -43 39 -43 19z"/>
<path d="M1592 795 c-1 -11 9 -38 22 -60 19 -34 32 -43 87 -62 70 -25 79 -27
79 -15 0 4 -28 14 -62 22 -54 13 -66 20 -89 55 -16 22 -30 49 -32 60 l-4 20
-1 -20z"/>
<path d="M390 785 c-10 -12 -10 -15 4 -15 26 0 18 -14 -19 -34 -34 -19 -34
-19 -18 -47 10 -16 20 -25 23 -21 3 4 16 13 28 20 21 12 23 11 18 -5 -3 -10
-8 -31 -12 -47 l-7 -28 27 17 c29 19 34 27 11 19 -18 -7 -18 -8 -5 35 8 28 5
41 -14 77 -20 38 -25 42 -36 29z m40 -59 c0 -17 -19 -33 -44 -38 -30 -5 -29
16 1 34 34 21 43 22 43 4z"/>
<path d="M1188 775 c5 -11 12 -27 15 -35 5 -13 6 -13 6 1 1 8 -6 24 -15 35
-15 19 -15 19 -6 -1z"/>
<path d="M351 772 c-1 -9 -8 -11 -23 -7 -23 7 -23 7 -3 -8 21 -17 41 -8 32 15
-4 10 -6 11 -6 0z"/>
<path d="M2144 739 c-12 -24 -13 -34 -4 -43 8 -8 10 -7 5 7 -4 10 -2 17 5 17
15 0 53 -20 61 -32 3 -5 9 -3 12 6 4 9 1 16 -6 16 -12 1 -57 34 -57 43 0 3 8
8 18 10 16 4 16 5 0 6 -10 1 -24 -12 -34 -30z"/>
<path d="M1410 717 c0 -19 32 -67 53 -78 20 -11 20 -9 -4 17 -15 16 -31 38
-37 49 -6 11 -12 16 -12 12z"/>
<path d="M470 671 c0 -8 8 -19 17 -26 16 -12 14 -15 -20 -31 -20 -10 -37 -21
-37 -26 0 -12 38 -48 51 -48 6 0 1 9 -12 20 -21 17 -22 21 -9 30 21 14 30 12
30 -6 0 -8 5 -12 10 -9 8 5 7 11 -1 21 -6 8 -9 18 -5 22 4 4 14 -2 22 -12 7
-11 16 -17 20 -14 3 4 -4 17 -15 30 -11 12 -27 32 -35 43 -10 13 -15 15 -16 6z"/>
<path d="M1201 668 c0 -9 -4 -25 -7 -35 -5 -17 -5 -17 6 0 6 10 9 25 7 35 -4
15 -5 15 -6 0z"/>
<path d="M2123 669 c30 -17 21 -39 -17 -39 -19 0 -38 -6 -42 -12 -4 -7 -4 -10
1 -6 12 11 65 -20 65 -38 0 -8 5 -12 10 -9 16 10 12 19 -17 37 l-28 17 50 1
50 0 -35 30 c-19 16 -39 30 -45 30 -5 0 -2 -5 8 -11z"/>
<path d="M1790 650 c0 -5 5 -10 10 -10 6 0 10 5 10 10 0 6 -4 10 -10 10 -5 0
-10 -4 -10 -10z"/>
<path d="M550 580 c0 -8 -13 -24 -29 -34 -28 -19 -28 -21 -13 -43 10 -12 23
-23 31 -23 7 0 3 8 -10 19 -23 19 -23 20 -5 27 12 5 21 3 24 -4 2 -7 8 -9 13
-6 6 3 5 11 -2 20 -6 8 -9 18 -5 22 4 4 14 -2 22 -12 7 -11 16 -18 18 -15 2 2
-7 18 -20 34 -15 18 -24 24 -24 15z"/>
<path d="M2014 565 c-16 -25 -16 -27 5 -49 13 -13 28 -23 34 -22 20 3 37 17
37 29 0 8 -4 7 -9 -2 -13 -21 -64 2 -59 26 5 26 31 27 58 3 26 -23 34 -25 24
-7 -30 52 -65 61 -90 22z"/>
<path d="M587 495 c-13 -19 -27 -32 -30 -28 -4 3 -7 4 -7 1 0 -3 7 -11 16 -18
12 -11 15 -11 12 0 -2 8 5 16 16 18 15 3 18 0 12 -21 -4 -17 0 -29 14 -42 11
-10 22 -16 23 -14 17 22 47 68 47 73 0 17 -19 2 -35 -28 -11 -19 -23 -33 -27
-30 -14 9 -9 44 7 50 21 9 19 47 -5 61 -17 11 -22 9 -43 -22z m53 -11 c0 -8
-7 -14 -15 -14 -15 0 -21 21 -9 33 10 9 24 -2 24 -19z"/>
<path d="M1967 524 c-4 -4 -4 -23 -1 -42 6 -32 5 -34 -12 -27 -54 22 -56 20
-33 -21 30 -51 28 -49 41 -36 9 9 8 12 -4 12 -9 0 -19 7 -22 16 -9 24 -8 24
19 14 23 -9 25 -7 26 18 0 27 1 27 11 5 12 -26 16 -27 38 -13 13 8 13 10 -2
10 -10 0 -26 16 -36 35 -10 20 -21 33 -25 29z"/>
<path d="M700 420 c-7 -17 -20 -35 -29 -40 -15 -9 -14 -9 1 -10 9 0 20 9 23
20 11 34 25 22 25 -22 l1 -43 25 30 c13 17 29 35 34 42 6 7 3 13 -8 18 -9 3
-13 3 -10 -1 9 -8 -9 -44 -22 -44 -6 0 -10 15 -10 34 0 46 -15 53 -30 16z"/>
<path d="M1860 437 c0 -8 9 -24 20 -37 11 -13 20 -18 20 -13 0 6 -7 16 -15 23
-9 7 -14 19 -11 27 3 7 1 13 -4 13 -6 0 -10 -6 -10 -13z"/>
<path d="M2175 432 c-5 -4 -19 -18 -30 -31 l-20 -24 33 23 c17 13 32 27 32 32
0 10 -2 10 -15 0z"/>
<path d="M1808 414 c-8 -8 34 -73 48 -74 5 0 19 6 29 14 18 13 18 14 -8 9 -24
-5 -29 -1 -40 26 -11 31 -18 37 -29 25z"/>
<path d="M774 364 c-9 -34 6 -58 38 -62 28 -3 46 23 23 32 -9 3 -12 0 -8 -10
3 -9 -2 -14 -15 -14 -27 0 -35 15 -28 46 7 27 42 33 65 12 11 -11 13 -10 9 2
-3 9 -19 16 -41 18 -32 3 -37 0 -43 -24z"/>
<path d="M1716 381 c-12 -5 -15 -10 -9 -14 6 -4 14 -23 17 -42 6 -31 10 -35
29 -29 48 14 62 48 31 78 -17 17 -37 19 -68 7z m48 -7 c20 -7 22 -64 3 -64
-20 0 -37 22 -37 47 0 24 7 27 34 17z"/>
<path d="M1558 364 c-3 -3 0 -17 7 -32 7 -15 16 -43 20 -62 l7 -35 -28 26
c-50 45 -91 69 -118 69 -14 0 -26 -5 -26 -11 0 -5 4 -8 9 -4 22 13 59 -118 40
-141 -12 -15 -6 -17 29 -8 18 5 20 8 9 18 -8 6 -19 35 -24 64 -10 54 -6 57 32
17 34 -34 95 -74 100 -64 4 6 -3 42 -16 81 -19 59 -20 71 -8 79 11 7 9 9 -7 9
-11 0 -23 -3 -26 -6z"/>
<path d="M967 339 c-26 -29 -39 -68 -31 -93 17 -58 105 -88 133 -45 12 20 11
21 -6 14 -62 -26 -93 -13 -93 42 0 41 13 69 40 83 25 13 58 -2 70 -33 7 -20 9
-20 15 -4 20 50 -90 81 -128 36z"/>
<path d="M1183 322 c-6 -4 -25 -37 -43 -74 -18 -38 -37 -68 -42 -68 -4 0 -8
-4 -8 -10 0 -5 10 -10 23 -10 18 0 23 5 23 23 -1 18 5 22 35 25 30 2 37 -1 42
-17 3 -12 1 -21 -4 -21 -5 0 -9 -4 -9 -10 0 -5 17 -10 38 -10 21 0 32 4 25 8
-14 9 -37 69 -47 124 -7 40 -16 51 -33 40z m17 -71 c8 -30 7 -31 -21 -31 -34
0 -34 1 -13 41 18 35 21 34 34 -10z"/>
<path d="M1325 320 c-33 -4 -55 -7 -49 -8 18 -3 29 -143 12 -153 -8 -5 16 -9
60 -9 68 0 72 1 71 23 0 12 -3 16 -6 10 -2 -8 -22 -13 -44 -13 -39 0 -40 1
-37 33 2 24 8 33 26 35 12 2 22 -1 22 -7 0 -6 5 -11 10 -11 12 0 13 47 1 54
-5 3 -11 -1 -15 -9 -9 -25 -43 -18 -48 10 -3 13 -3 27 0 30 11 10 70 5 75 -7
2 -7 7 -10 11 -7 10 9 -4 39 -18 37 -6 -1 -38 -4 -71 -8z"/>
<path d="M2526 1314 c-9 -23 -6 -105 4 -129 6 -13 9 7 9 63 1 82 -2 96 -13 66z"/>
</g>
</svg>
